<svg xmlns="http://www.w3.org/2000/svg" viewBox="0 0 256 256" id="boy">
  <path fill="#da865c" d="M181.38 254.46c0-22.62-21.43-46.47-49.58-51.23v-25.48h-20.26v25.48C83.39 208 62 231.84 62 254.46c1.23-1.27 120.65-1.27 119.38 0Z"></path>
  <path fill="#c97c55" d="M111.54 177.75h20.26V194h-20.26z"></path>
  <path fill="#39240f" d="M209 75.3a19.6 19.6 0 0 0-14.15-18.82 19.61 19.61 0 0 0-21.78-27.14 19.6 19.6 0 0 0-30.31-13.07 21.35 21.35 0 0 0-38.65 0 19.6 19.6 0 0 0-30.29 13.07A19.38 19.38 0 0 0 70 29a19.58 19.58 0 0 0-17.95 27.48 19.59 19.59 0 0 0-9.56 31.44 33 33 0 1 0 34.36-15.63 19.21 19.21 0 0 0-1.42-4.9 19.62 19.62 0 0 0 13.88-15.64 19.59 19.59 0 0 0 20.9-9.58 21.33 21.33 0 0 0 26.49 0 19.61 19.61 0 0 0 20.91 9.58 19.59 19.59 0 0 0 13.87 15.64 19.63 19.63 0 0 0-1.42 4.9 33 33 0 1 0 34.36 15.63A19.53 19.53 0 0 0 209 75.3Z"></path>
  <path fill="#d7805d" d="M54 123.9c3.29 4.2 2.66 15.92 1.14 17.12s-13-1-16.34-5.19A9.66 9.66 0 0 1 54 123.9zm138.4 0c-3.29 4.2-2.66 15.92-1.14 17.12s13.05-1 16.34-5.19a9.66 9.66 0 0 0-15.2-11.93z"></path>
  <path fill="#da865c" d="M194.55 126.45c5.16 43.81-27.26 62.05-71 62.05s-78.15-18.24-72.95-62c5.35-43.81 37.3-75.21 72-75.21s66.6 31.35 71.95 75.16Z"></path>
  <path fill="none" stroke="#8b3607" stroke-linecap="round" stroke-linejoin="round" stroke-width="3" d="M129 132.89a6.44 6.44 0 0 0-12.87 0"></path>
  <path fill="none" stroke="#3d2513" stroke-linecap="round" stroke-linejoin="round" stroke-width="5" d="M79.07 94.68a8.94 8.94 0 0 1 6.4-3.32 9.09 9.09 0 0 1 3.51.49m76.19 2.83a8.94 8.94 0 0 0-6.4-3.32 9.09 9.09 0 0 0-3.51.49"></path>
  <ellipse cx="74" cy="141.31" fill="#d67656" rx="12.94" ry="8.91" transform="rotate(-2.04 73.896 141.214)"></ellipse>
  <circle cx="67.3" cy="138.59" r="3.57" fill="#d67656"></circle>
  <ellipse cx="170.26" cy="141.31" fill="#d67656" rx="8.91" ry="12.94" transform="rotate(-87.96 170.26 141.308)"></ellipse>
  <circle cx="176.96" cy="138.59" r="3.57" fill="#fff" opacity=".2"></circle>
  <circle cx="67.3" cy="138.59" r="3.57" fill="#fff" opacity=".2"></circle>
  <path fill="#3d2513" d="M182.58 67.34a15.41 15.41 0 0 0-5.2.92 19.88 19.88 0 0 0-29.95-21.08 25.88 25.88 0 0 0-51.51 0 19.89 19.89 0 0 0-30 20.82 15.25 15.25 0 0 0-4.56-.69 15.45 15.45 0 1 0 15.45 15.48v-.81a19.85 19.85 0 0 0 27.83-12.78 25.86 25.86 0 0 0 34.06 0 19.87 19.87 0 0 0 28.49 12.48c0 .37-.06.74-.06 1.11a15.45 15.45 0 1 0 15.45-15.45Z"></path>
  <path fill="#c0322c" d="M156.43 242h22.86c-5.24-15.87-19.88-30.48-38.7-36.59a45.71 45.71 0 0 1-37-.28c-19.22 5.92-34.22 20.74-39.54 36.87h22.86v11.69c20.41-.22 49.12-.22 69.52 0Z"></path>
  <path fill="#c7342e" d="M86.91 249.88h69.52v-4H86.91Zm89.34-15H67.06c-.68 1.32-1.3 2.65-1.86 4h112.93c-.55-1.35-1.19-2.68-1.88-4Zm-7.57-11H74.63q-1.71 2-3.21 4h100.49c-1-1.37-2.09-2.7-3.23-4Zm-12.62-11H87.24a63.91 63.91 0 0 0-5.4 4h79.62a65.56 65.56 0 0 0-5.4-4Z"></path>
  <path fill="#ffe9e8" d="M119.64 209.08c-.75 0-1.5-.11-2.23-.18h-.39c-.76-.09-1.51-.19-2.25-.31h-.08c-.76-.13-1.5-.27-2.23-.43h-.17c-.74-.17-1.45-.35-2.16-.54l-.23-.07c-.72-.2-1.42-.41-2.11-.65h-.05a36.83 36.83 0 0 1-4-1.65h-.09c-1.45.45-2.88 1-4.29 1.51 5.8 4 14 6.54 23.09 6.54 8.8 0 16.77-2.35 22.53-6.16-1.42-.58-2.86-1.13-4.34-1.61-.63.29-1.28.57-2 .83h-.07a40.87 40.87 0 0 1-4.22 1.38q-1 .27-2.13.51l-.26.05c-.72.15-1.44.28-2.18.4h-.06c-.7.11-1.42.2-2.15.28h-.32c-.71.08-1.43.13-2.16.17h-.43c-.75 0-1.5.06-2.26.06s-1.59 0-2.37-.06Z"></path>
  <path fill="none" stroke="#3d2513" stroke-linecap="round" stroke-linejoin="round" stroke-width="3" d="M79.87 119.21a6.65 6.65 0 0 1 12.38-.37m63.38.37a6.64 6.64 0 0 1 12.37-.37"></path>
  <path fill="#8b3607" d="M122.5 164c6.36 0 11.76-3.46 13.72-8.27a2.94 2.94 0 0 0-2.78-4h-21.88a2.94 2.94 0 0 0-2.78 4c1.96 4.81 7.36 8.27 13.72 8.27Z"></path>
</svg>
